<svg width="962" height="842" viewBox="0 0 962 842" fill="none" xmlns="http://www.w3.org/2000/svg">
<path d="M425.85 673.023C437.705 668.234 444.1 659.95 444.695 672.704C444.7 672.922 442.229 681.822 443.338 695.132C444.178 705.22 444.365 742.678 444.386 746.814C444.467 763.159 442.246 763.077 444.9 779.033C445.194 780.799 444.461 780.809 445.211 801.423C445.418 807.124 445.272 808.283 430.49 815.713C429.761 816.079 429.316 814.59 420.713 818.623C406.527 825.273 403.802 824.773 397.465 826.147C383.871 830.376 383.326 828.28 370.225 833.787C367.25 835.038 356.718 835.504 355.532 835.556C353.095 835.664 353.45 836.743 325.351 839.876C317.544 840.747 315.192 838.379 302.832 841.215C294.352 843.16 230.257 836.538 206.303 825.91C178.695 813.659 179.451 810.86 179.692 804.339C179.886 799.116 179.589 799.151 179.175 739.014C178.724 673.623 174.891 662.537 182.571 669.233C190.874 676.472 220.481 688.764 234.633 690.134C243.088 690.952 242.701 692.875 251.194 693.209C251.329 693.227 277.652 702.542 343.866 694.376C359.792 692.411 390.875 683.891 391.67 683.775C391.954 683.728 425.162 673.3 425.85 673.023ZM282.397 831.412C267.144 832.713 283.992 835.185 284.35 835.196C287.062 835.261 289.917 833.791 289.876 832.629C289.813 830.9 289.058 831.61 283.561 831.455L282.397 831.412ZM300.932 832.577C305.803 831.588 300.577 829.56 299.819 830.571C298.893 831.809 299.666 831.734 300.932 832.577ZM398.952 734.438C398.742 733.781 392.43 730.524 394.67 741.912C396.112 749.241 393.504 749.139 394.096 751.778C395.853 759.625 396.182 759.734 393.551 767.288C391.417 773.408 392.554 780.979 389.866 775.026C389.377 773.939 391.158 773.616 387.107 760.357C385.449 754.927 387.069 749.45 384.717 750.073C383.362 750.433 382.256 751.441 380.946 751.94C380.119 752.253 370.053 746.807 366.518 752.773C366.241 753.245 368.508 753.018 367.588 759.548C366.465 767.523 382.941 755.054 381.219 765.523C380.885 767.551 381.257 769.33 380.032 767.804C379.875 767.608 374.859 761.366 377.157 768.217C378.232 771.426 372.092 775.027 372.714 779.999C374.325 792.869 367.273 783.451 367.08 782.97C366.55 781.624 369.516 772.017 364.883 779.571C363.853 781.244 359.337 778.072 359.18 780.891C359.12 781.969 358.467 793.667 348.826 789.447C345.868 788.15 349.312 782.32 344.788 782.065C339.666 781.778 336.743 781.068 338.499 785.998C341.646 794.833 317.757 783.566 325.293 792.651C332.521 801.367 316.924 795.513 316.822 800.455C316.811 801.275 328.001 805.987 320.451 806.579C316.422 806.895 315.93 804.846 307.184 809.703C307.033 809.787 306.741 809.95 306.874 811.844C312.963 810.933 321.59 806.631 318.056 813.889C316.565 816.95 313.256 813.404 311.125 817.255C309.654 819.915 308.516 817.752 305.895 819.115C304.543 819.82 299.499 832.217 311.576 828.473C313.139 827.989 320.142 823.336 319.724 829.696C319.67 830.521 319.89 833.328 330.045 829.255C330.643 829.014 330.681 829.934 337.948 827.63C339.766 827.055 344.814 831.909 346.983 828.932C355.426 817.342 363.729 834.959 366.591 826.911C368.09 822.695 367.277 820.767 370.192 821.72C375.493 823.452 382.026 828.02 380.122 820.872C379.154 817.234 386.892 820.203 399.473 817.4C401.628 816.921 412.874 820.156 407.688 815.873C401.575 810.822 412.881 817.355 418.343 811.648C419.472 810.468 429.15 812.994 423.787 809.922C419.083 807.227 430.597 808.72 431.574 807.258C433.167 804.87 432.018 802.764 436.478 803.215C440.17 803.588 436.909 800.918 436.682 777.034C436.605 768.894 440.56 759.727 427.623 762.998C424.202 763.863 420.763 759.656 418.919 759.894C412.953 760.668 413.134 761.106 408.186 764.367C406.713 765.338 390.018 760.661 407.324 755.961C429.646 749.899 442.589 759.67 437.196 747.889C434.853 742.77 427.112 747.933 429.642 742.916C430.364 741.483 424.097 741.58 423.991 741.537C420.515 739.337 419.976 740.17 417.591 743.628C416.968 744.529 398.639 756.504 401.595 741.994C401.722 741.367 401.205 741.527 398.952 734.438ZM206.456 693.156C204.445 684.482 189.666 700.974 197.554 699.954C198.321 699.851 200.629 693.231 201.14 696.258C201.38 697.672 200.6 697.974 201.954 699.815L202.255 700.204C202.243 701.109 202.153 701.137 201.693 702.35L201.473 702.948C196.788 702.817 196.023 703.644 195.705 703.989C189.019 711.233 204.547 711.473 203.485 713.687C201.67 717.467 201.998 717.423 202.468 721.464C202.93 725.44 200.856 721.776 197.329 719.007L197.871 717.516C197.853 715.652 196.203 713.214 195.633 716.58C196.522 719.122 196.474 719.025 196.546 719.135C194.057 720.252 195.003 720.918 193.401 730.234C193.296 730.857 197.493 736.192 192.74 737.394C192.006 737.58 190.455 737.974 192.532 746.868C192.948 748.637 196.781 749.968 195.586 751.669C193.453 754.703 193.884 754.852 195.107 758.392L194.607 759.438C190.592 763.805 190.796 763.738 190.448 764.096C183.84 770.899 196.545 781.666 198.898 769.22C199.954 765.695 199.855 764.797 203.465 765.077C207.054 765.355 215.611 759.017 218.861 762.543C225.207 769.426 211.764 770.18 208.533 768.78C200.39 765.249 202.702 774.484 198.592 776.183C190.519 779.518 195.124 782.071 195.613 781.905C202.803 779.47 197.739 787.108 196.69 787.248C184.663 788.839 191.883 780.291 190.504 778.172C186.635 772.239 186.794 783.555 186.599 786.775C186.28 792.027 189.642 790.34 191.911 794.153L192.127 794.54C191.238 795.047 190.348 795.555 189.459 796.063L188.693 796.805C183.593 796.974 188.49 802.902 188.824 803.305C191.14 804.365 190.964 804.266 191.142 804.365C191.483 804.554 190.863 804.831 191.339 805.095C190.542 806.203 190.615 806.123 190.541 806.204C184.168 813.128 196.838 805.984 200.103 810.505C207.16 820.275 211.598 812.162 220.156 818.509C221.492 819.496 236.153 814.164 230.659 818.907C223.009 825.513 242.521 826.412 248.315 824.973C250.963 824.316 252.28 828.774 257.053 828.491C267.163 827.891 268.235 831.75 276.234 825.448C279.435 822.927 272.121 822.114 274.645 819.009C280.819 811.415 273.873 811.859 270.809 810.872C267.551 809.82 270.776 805.157 274.681 809.024L275.616 809.286C278.587 805.582 280.837 807.06 281.317 802.372C281.534 800.262 282.39 801.765 284.362 802.594C286.312 803.412 283.914 796.222 288.08 798.614C289.325 801.542 288.494 801.473 287.239 804.329C286.261 806.559 290.743 809.254 287.326 809.481C279.578 809.996 288.117 818.731 285.993 820.627C281.781 824.385 285.172 825.098 290.275 827.579C296.062 830.391 299.48 801.425 299.312 800.357C298.555 795.633 293.653 804.074 291.652 800.041C290.465 797.646 290.652 797.639 288.486 796.083C286.856 795.419 286.957 795.589 285.379 795.249L284.274 794.765C284.372 789.387 282.78 789.854 282.443 789.885L282.393 789.883L280.816 789.447L280.424 788.862C276.542 783.246 277.66 790.37 277.728 790.627C277.772 790.786 277.737 790.823 277.604 791.897L277.436 793.364C274.878 793.301 274.665 793.426 272.635 793.385L271.641 793.355L269.344 791.957C267.172 790.852 262.699 790.416 265.057 787.935C266.426 786.496 278.022 784.493 273.189 778.388C270.415 774.883 268.455 774.1 272.004 771.582C276.93 768.085 279.926 765.074 280.462 771.191C281.914 787.788 292.659 781.25 291.27 777.968C290.756 776.754 285.641 770.067 285.125 769.392C284.547 768.638 279.476 766.566 279.148 760.484C279.122 760.002 278.52 748.845 275.735 755.662C274.738 758.104 277.017 765.034 270.725 762.367C270.398 762.056 270.071 761.744 269.744 761.433C267.953 759.259 266.686 760.309 266.236 757.476C265.837 754.972 258.753 744.938 255.182 746.953C249.364 750.236 251.616 744.484 249.856 743.348C245.397 740.478 243.76 746.233 240.148 742.225C231.293 732.399 229.797 739.916 230.221 740.604C233.648 746.119 239.41 747.827 240.38 748.114C241.806 748.538 249.052 754.624 240.432 755.277C236.793 755.554 241.223 763.404 237.458 760.628C233.3 757.559 236.12 756.586 236.126 754.627C236.136 750.041 222.832 758.198 224.173 753.708C225.628 748.837 229.159 749.763 227.609 744.921C226.791 742.364 228.134 737.253 226.902 736.901C221.52 735.372 221.709 737.106 216.162 738.436L214.096 738.09C213.492 737.397 212.889 736.703 212.286 736.01L212.106 735.385C210.235 729.209 207.931 731.748 207.947 732.197C207.981 733.058 210.095 733.921 209.537 736.297L209.282 736.491C203.828 740.371 192.214 731.95 205.296 728.048C213.6 725.57 222.876 728.018 215.9 722.721C213.415 720.834 212.762 721.55 211.764 718.659C210.822 715.932 205.15 714.091 209.458 710.891C211.435 709.422 209.824 709.171 208.424 708.646C204.222 707.072 216.279 705.461 212.08 704.181C208.926 703.221 208.295 703.283 208.374 700.011C208.387 699.442 207.961 699.65 206.456 693.156ZM388.429 822.158C387.966 821.733 383.255 822.543 387.775 824.092C388.639 823.037 389.389 823.048 388.429 822.158ZM301.896 808.332C300.536 808.325 298.714 811.656 304.833 812.157C304.78 811.772 304.31 808.343 301.896 808.332ZM304.832 804.345C303.838 801.031 302.91 803.189 302.852 803.358C302.175 805.362 303.527 806.162 304.832 804.345ZM302.818 786.874C302.587 786.702 299.861 785.279 301.346 790.126C296.938 796.939 312.141 800.857 316.191 793.479C318.94 788.472 309.66 795.974 307.671 794.772C302.187 791.455 302.375 789.31 301.924 788.577C303.187 787.925 304.052 787.794 302.818 786.874ZM286.333 791.441C290.218 790.972 287.512 788.586 286.609 789.194C286.459 789.296 286.202 789.471 286.333 791.441ZM330.169 781.045C329.938 781.034 328.69 780.978 328.653 783.5C332.038 786.729 332.574 781.157 330.169 781.045ZM305.118 781.042C305.214 780.785 308.062 773.076 303.113 778.349C301.321 780.258 299.154 776.968 296.918 777.807C291.08 780.001 301.296 787.354 305.118 781.042ZM355.386 778.025C355.246 773.156 352.296 777.39 352.141 777.611C349.816 781.045 355.494 781.819 355.386 778.025ZM367.306 770.911C365.111 770.688 363.75 769.923 364.382 772.15C365.332 775.501 371.028 773.216 367.306 770.911ZM327.267 768.115C327.135 768.108 327.266 768.116 325.989 769.18C328.143 772.039 327.948 768.396 327.329 768.13L327.267 768.115ZM313.628 770.194C317.181 770.454 314.397 767.68 313.667 768.341C313.557 768.44 313.667 768.342 313.628 770.194ZM358.335 768.356C358.019 767.915 353.207 767.925 357.473 770.157C358.446 769.34 359.099 769.434 358.335 768.356ZM339.881 767.868C339.747 767.872 339.879 767.868 338.934 769.246C340.897 771.037 341.183 767.839 339.881 767.868ZM306.442 759.68C305.535 757.997 304.933 758.807 304.171 760.464C304.335 760.576 308.419 763.353 306.442 759.68ZM290.045 757.589C289.934 757.327 287.069 751.092 286.748 758.534C286.638 761.111 290.218 762.078 290.045 757.589ZM360.493 756.07C360.355 756.088 360.492 756.071 359.524 757.528C361.336 759.691 362.059 755.865 360.493 756.07ZM344.994 750.683C344.835 750.349 341.946 744.303 341.515 747.688C341.123 750.766 344.375 752.538 344.802 752.769C346.674 754.287 346.643 754.008 348.831 754.603C349.101 756.197 349.015 756.104 349.101 756.2C349.912 757.104 356.447 754.854 356.6 754.708C357.008 754.307 358.274 749.509 349.733 752.754C347.154 751.974 347.381 751.935 344.994 750.683ZM335.748 751.784C335.285 750.023 334.744 751.063 333.15 751.737C331.786 755.703 336.339 754.042 335.748 751.784ZM315.507 749.231C315.192 749.208 307.104 748.603 313.654 752.573C315.531 753.71 323.014 750.807 315.507 749.231ZM302.888 748.747C301.763 747.976 301.878 748.638 301.108 749.748C303.263 753.516 303.553 749.207 302.888 748.747ZM382.645 747.805C378.85 741.308 377.712 746.448 377.786 746.844C378.436 750.169 382.298 748 382.645 747.805ZM385.322 738.054C385.303 737.778 381.861 728.657 382.057 738.031C382.122 746.922 385.336 738.416 385.322 738.054ZM372.173 733.071C370.445 729.006 371.515 738.168 367.18 737.181C365.465 736.939 365.37 736.458 364.598 737.324C360.777 741.615 376.955 744.323 372.173 733.071ZM413.021 737.083C412.542 736.306 408.463 736.885 412.055 738.792C413.02 737.085 413.104 737.217 413.021 737.083ZM353.552 736.128C352.498 735.321 352.581 735.932 351.794 737.076C354.001 741.107 353.896 736.394 353.552 736.128ZM427.802 735.015C426.745 733.714 422.47 736.089 426.713 737.065C428.069 736.206 428.77 736.209 427.802 735.015ZM289.953 733.462C288.555 732.311 283.83 735.917 289.317 736.248C290.534 734.866 291.422 734.674 289.953 733.462ZM270.634 733.263C269.481 732.557 264.079 735.838 269.695 736.021C269.888 735.885 272.214 734.232 270.634 733.263ZM376.846 732.573C374.191 731.735 374.247 737.875 377.259 735.266C377.52 733.637 378.513 733.1 376.846 732.573ZM405.323 733.116C403.906 731.366 398.845 735.769 404.154 735.799C405.331 734.44 406.46 734.521 405.323 733.116ZM334.069 735.551C338.582 731.61 332.666 733.708 332.635 734.014C332.619 734.181 332.636 734.016 334.069 735.551ZM246.372 722.417C245.025 718.479 242.127 719.162 241.884 723.401C240.584 732.964 240.476 733.301 241.25 733.554C249.928 736.386 249.317 731.024 246.372 722.417ZM220.957 730.331C219.354 730.227 218.984 734.714 222.231 732.261C221.767 730.854 222.237 730.414 220.957 730.331ZM311.456 729.287C311.408 729.194 311.257 727.668 309.538 728.069C308.615 728.287 309.597 733.449 311.456 729.287ZM421.807 728.359C421.641 728.265 418.843 726.822 420.744 730.445C422.603 729.961 423.46 729.304 421.807 728.359ZM407.096 727.328C406.35 724.902 405.22 723.952 404.189 726.267C403.26 728.355 408.656 733.162 407.096 727.328ZM372.548 727.126C371.142 725.395 371.124 724.103 369.335 725.55C367.203 727.277 373.122 733.525 372.548 727.126ZM430.197 717.595C429.528 712.197 420.337 704.834 419.056 705.327C418.356 705.598 418.156 705.892 419.654 714.684C419.824 715.678 419.989 716.641 428.592 723.567L429.716 725.377C429.684 727.287 429.633 727.146 429.683 727.29C431.255 731.766 438.73 716.818 431.037 721.051C430.146 719.403 430.432 719.485 430.197 717.595ZM330.143 717.558C331.215 710.541 322.565 721.652 319.418 717.589C317.884 715.609 311.904 714.942 316.168 719.817C316.317 719.988 316.238 720.017 317.121 722.486C318.265 726.399 317.335 729.831 320.331 727.162C325.818 722.274 329.046 724.746 330.143 717.558ZM223.751 708.878C221.819 706.564 221.469 704.946 219.382 707.171C216.668 710.065 217.613 714.108 217.756 714.715C219.989 724.232 219.085 724.24 219.369 725.024C220.631 728.502 222.62 722.813 224.409 724.836C229.019 730.053 233.35 724.992 230.373 722.902C224.066 718.479 239.68 714.411 232.724 711.393C228.914 709.741 229.022 711.601 228.111 715.765C226.902 721.299 224.751 710.679 223.751 708.878ZM191.686 715.68C188.572 714.716 189.468 716.624 188.158 719.639C187.418 731.185 194.447 716.538 191.686 715.68ZM407.32 718.452C405.093 716.445 405.731 712.27 402.327 715.603C398.884 718.976 409.181 725.489 407.32 718.452ZM412.112 718.525C410.382 715.736 410.11 720.145 410.096 720.369C410.31 720.321 412.869 719.745 412.112 718.525ZM366.998 716.985C366.883 716.918 366.996 716.987 365.45 717.609C366.98 721.308 367.475 717.261 366.998 716.985ZM398.077 714.012C397.786 713.737 392.864 714.128 392.766 716.341C399.622 717.127 398.41 714.337 398.077 714.012ZM415.955 712.781C415.827 712.708 415.953 712.782 414.346 713.707C415.423 716.175 417.333 713.572 415.955 712.781ZM363.954 710.802C362.749 703.35 357.878 709.417 357.553 709.822C349.579 715.925 364.705 715.45 363.954 710.802ZM280.44 708.697C277.747 711.37 281.732 710.551 281.751 709.769C281.754 709.634 281.749 709.768 280.44 708.697ZM190.586 705.159C189.021 704.304 189.139 705.141 188.459 706.832C190.048 712.306 192.071 705.971 190.586 705.159ZM311.645 706.842C310.58 705.596 306.578 708.179 310.682 708.824C311.899 707.931 312.564 707.917 311.645 706.842ZM410.114 696.701C403.991 698.337 408.547 700.986 409.987 700.518C417.329 698.137 410.421 696.763 410.114 696.701ZM217.164 696.937C216.121 696.632 215.53 697.293 215.492 697.303C217.068 701.583 217.335 696.997 217.164 696.937ZM312.489 550.688C326.602 537.468 327.437 535.656 336.975 539.183C373.077 552.534 399.467 532.373 401.491 539.054C404.006 547.36 403.159 547.483 406.013 555.759C410 567.325 372.474 564.268 358.447 566.01C345.409 568.324 349.93 574.619 333.564 591.159C329.832 594.931 339.413 595.476 342.887 596.532C344.518 597.028 348.59 595.803 357.458 597.752C373.675 601.315 415.572 586.814 416.688 592.825C417.144 595.282 418.266 601.336 424.523 623.045C434.339 657.096 434.661 657.853 432.385 659.818C429.706 662.127 363.817 686.062 319.439 686.918C261.308 688.037 242.339 686.081 203.499 670.565C202.593 670.203 192.355 666.113 193.936 663.064C194.119 662.744 214.008 640.638 218.088 641.272C219.923 641.559 219.047 643.447 239.356 650.64C257.671 657.127 267.69 659.876 308.742 659.288C311.399 659.25 314.323 659.207 330.681 634.352C340.89 618.841 324.203 627.381 305.829 624.78C304.581 624.603 296.442 623.451 290.209 622.902C278.087 621.835 250.645 612.564 251.934 608.269C252.86 605.192 256.195 604.871 275.859 585.245C279.769 581.343 309.548 553.445 312.489 550.688ZM455.767 549.722C473.954 549.849 494.386 550.189 497.865 550.247C500.335 550.289 506.814 548.384 506.602 551.802C505.78 564.987 506.219 564.826 505.859 578.138C505.77 581.454 503.885 579.824 485.222 580.34C470.595 582.124 479.951 594.178 477.268 609.299C475.879 617.134 478.914 662.277 475.414 662.716C462.351 664.354 467.335 657.151 467.217 655.171C466.713 646.772 465.893 646.878 467.31 638.541C468.268 632.907 465.166 632.912 466.852 626.934C467.108 626.031 467.002 626.088 467.077 604.446C467.102 597.104 466.554 597.296 467.041 589.83C467.977 575.481 457.429 575.478 455.979 575.477C450.933 575.476 440.662 577.589 440.997 574.219C442.781 556.283 437.778 549.647 448.167 549.681L455.767 549.722ZM582.095 617.128C582.06 551.491 579.245 546.828 584.527 548.374C596.288 551.816 591.249 556.109 591.406 568.374C591.478 573.991 591.728 573.872 593.215 638.583C593.33 643.585 594.647 643.502 593.26 648.282C592.816 649.82 600.731 665.529 582.679 662.225C578.195 661.405 578.338 661.61 573.939 661.596C570.568 662.209 529.549 664.865 528.73 660.122C527.56 653.344 529.982 640.163 527.33 630.746C526.336 627.216 528.209 620.81 525.589 553.723C525.33 547.073 534.341 547.356 534.559 556.698C534.71 563.105 536.339 632.581 538.77 636.679C544.715 646.695 547.688 641.746 574.924 642.603C586.064 642.954 582.105 637.134 582.095 617.128ZM614.321 580.073C614.314 553.908 609.632 545.919 625.618 546.417C652.534 547.256 652.826 545.714 654.516 547.292C678.741 569.908 680.652 570.518 678.911 581.969C678.546 584.367 679.717 584.329 680.058 612.269C680.067 612.979 680.185 612.905 681.49 621.028C681.53 622.722 682.086 659.667 681.963 659.953C680.068 663.61 678.413 659.446 630.52 662.24C615.186 663.134 615.27 660.309 615.308 659.065C616.507 619.557 614.332 619.717 614.321 580.073ZM717.294 548.857C720.556 549.627 723.901 545.401 726.795 548.174C727.839 549.181 729.191 594.543 729.311 598.582C730.492 638.14 731.762 644.464 732.548 648.378C735.723 664.196 724.626 661.971 706.547 661.242C706.089 661.223 701.336 661.03 701.817 658.097C703.482 647.952 699.986 617.519 701.287 599.572C700.989 588.653 698.342 588.955 699.464 578.083C701.318 560.104 689.816 542.366 717.294 548.857ZM804.005 544.828C807.66 543.147 808.844 546.031 810.875 545.792C819.501 544.775 813.581 562.554 815.125 574.193C818.127 596.819 814.042 643.574 817.923 650.155C818.928 651.861 819.745 660.995 815.785 660.847C812.116 660.71 772.362 659.217 769.899 659.751C768.361 660.084 750.033 664.06 750.33 658.087C750.647 651.729 749.871 631.143 750.458 628.832C751.445 624.951 750.396 625.051 750.31 621.033C749.696 592.212 748.735 592.225 749.167 589.76C750.604 581.566 750.065 581.628 749.069 573.258C749.008 562.251 747.05 550.01 749.866 547.381C753.318 544.159 796.273 548.383 804.005 544.828ZM251.962 647.391C249.557 619.378 252.229 617.833 254.088 619.131C262.345 624.898 263.347 624.334 273.554 627.283C291.953 634.173 324.818 630.157 322.078 635.527C321.518 636.623 320.62 635.973 313.171 648.061C306.802 658.395 252.26 650.838 251.962 647.391ZM411.062 645.139C410.371 645.206 407.61 651.775 412.648 647.276C412.163 645.693 412.687 644.985 411.062 645.139ZM643.177 557.135C624.916 556.54 621.836 557.219 622.241 566.444C624.759 623.809 622.492 623.972 623.938 628.743C626.74 637.989 621.081 641.014 626.615 642.461C627.855 642.78 666.288 642.661 667.569 642.518C672.944 641.916 668.777 613.756 669.57 595.68C670.151 582.432 669.959 581.83 660.716 572.292C651.536 560.227 647.393 557.271 643.177 557.135ZM801.942 556.846C798.197 553.177 789.129 557.342 777.757 557.181C763.883 556.986 757.639 553.564 758.004 567.398C758.852 599.544 758.54 599.557 759.33 602.464C760.433 606.524 758.556 613.2 760.852 628.876C761.348 632.27 758.998 641.31 763.133 641.28C779.282 641.158 779.137 641.103 795.302 641.106C798.808 641.187 798.675 641.393 802.118 641.713C805.561 642.031 806.236 640.004 805.212 598.595C805.078 593.195 804.592 593.302 805.172 587.886C805.356 586.158 805.393 560.229 801.942 556.846ZM342.656 631.104C342.384 630.908 339.978 629.18 340.344 634.592C342.073 642.004 345.348 633.037 342.656 631.104ZM721.251 621.991C721.277 621.573 722.355 604.558 719.598 617.198C718.234 623.447 718.14 623.383 713.532 627.975C709.272 632.223 719.167 641.778 721.58 632.74C721.275 622.79 721.196 622.848 721.251 621.991ZM392.76 604.303C391.732 602.391 385.82 607.062 391.543 607.148C392.731 605.819 393.648 605.956 392.76 604.303ZM443.199 465.957C444.058 463.061 448.41 462.697 447.368 466.033C443.589 478.123 448.641 478.576 446.307 488.435C446.088 489.359 445.569 523.611 446.657 527.271C449.354 536.33 444.51 541.82 444.243 541.835C430.545 542.607 433.788 559.127 433.843 574.223C433.878 584.03 438.49 581.127 442.579 584.601C442.955 584.921 444.781 585.603 438.026 595.34C437.557 596.015 437.319 595.542 430.435 602.269C426.788 605.833 428.841 597.769 423.698 584.988C422.894 582.99 427.567 572.055 417.113 579.344C409.585 584.592 417.819 573.308 413.719 558.7C404.83 527.028 404.138 526.346 401.364 526.297C399.514 526.264 388.158 532.1 377.006 532.568C366.278 535.382 339.056 535.736 340.65 527.393C344.166 508.998 335.311 497.364 345.075 503.603C386.43 530.028 436.548 488.371 443.199 465.957ZM298.994 465.38C309.435 464.769 305.355 470.205 305.321 480.615V492.315C305.321 493.485 305.317 493.4 305.257 506.942C305.265 541.705 306.803 542.769 301.66 547.631C293.363 555.473 294.425 556.365 285.394 563.587C266.221 578.915 263.57 594.084 241.457 595.865C203.572 598.916 175.787 597.271 166.363 599.581C161.734 600.714 155.301 598.251 152.733 598.189C143.222 597.963 129.396 598.091 127.365 598.109C119.976 598.177 123.8 594.059 123.435 580.075C122.447 542.103 125.002 542.023 122.196 523.573C121.226 517.192 123.985 514.762 122.747 503.004C121.452 490.704 123.762 490.78 122.164 478.708C120.096 463.093 128.155 467.179 143.935 467.077C214.286 466.618 214.138 466.671 284.349 466.714C291.784 466.719 291.528 465.818 298.994 465.38ZM286.296 594.514C286.101 594.481 283.676 594.231 286.044 596.953C289.857 598.055 288.053 594.799 286.296 594.514ZM649.041 463.75C650.321 463.676 651.205 464.14 651.187 479.638C651.155 507.569 652.701 507.554 652.183 509.923C650.277 518.654 650.969 518.657 650.936 537.169C650.926 542.997 626.033 538.961 613.964 540.464C595.241 542.795 618.473 599.856 600.147 591.02C598.497 590.22 598.072 566.085 598.868 558.636C597.034 551.968 597.75 548.816 597.284 544.988C596.598 539.365 591.097 542.427 582.72 540.134C569.167 536.424 574.983 584.802 575.88 588.849C576.675 592.444 546.34 592.407 543.75 592.403C541.029 592.398 540.962 571.175 540.851 548.87C540.784 535.175 512.031 538.988 518.051 555.784C519.351 559.413 522.257 593.439 516.401 593.562C486.736 594.168 486.237 595.353 484.683 593.347C479.95 587.235 506.705 589.114 508.626 589.106C513.609 589.085 514.754 582.96 514.7 582.019C514.638 580.925 514.03 570.415 513.342 568.406C512 564.496 512.846 564.56 513.385 560.552C514.45 552.616 512.217 552.871 512.119 544.99C512.039 538.527 508.308 542.115 480.358 541.838C480.298 541.84 476.136 542.835 477.923 521.513C480.865 486.392 476.235 486.336 477.184 483.442C479.725 475.703 475.274 465.019 480.347 465.134C488.615 465.321 546.312 466.631 583.718 465.32C616.526 464.171 616.392 465.637 649.041 463.75ZM629.128 568.393C628.743 559.534 644.333 563.603 647.931 566.581C651.565 569.592 653.421 587.458 650.635 589.402C643.229 594.568 642.484 591.876 633.433 592.164C628.262 591.704 630.02 588.889 629.128 568.393ZM406.232 570.431C409.209 570.356 409.081 585.183 405.232 585.769C381.879 589.325 382.097 591.849 347.732 590.753C339.038 590.476 346.644 586.344 352.834 577.326C355.521 573.411 378.776 577.587 396.355 572.887C401.243 571.147 401.018 570.564 406.232 570.431ZM147.984 586.69C145.975 586.601 145.766 586.145 145.093 587.079C143.06 589.898 150.199 589.491 147.984 586.69ZM209.284 585.812C209.121 585.798 206.289 585.916 209.263 587.84C210.493 586.765 210.926 585.956 209.284 585.812ZM151.951 538.288C155.999 531.825 152.104 531.919 151.686 532.175C135.248 542.245 126.72 554.891 135.176 549.88C145.553 543.731 136.744 554.585 136.064 560.569C134.983 570.091 138.773 572.973 139.636 573.629C143.627 576.664 128.213 576.796 129.067 580.17C130.148 584.435 131.476 580.59 135.098 578.092C139.978 574.727 135.408 581.372 138.751 586.197C141.714 590.472 142.288 584.691 142.933 582.019C145.062 573.203 152.033 580.01 156.547 572.23C159.356 567.386 154.295 569.649 149.89 566.301C147.807 564.716 152.548 560.508 144.89 553.778C141.708 550.982 141.789 548.975 145.973 548.379C149.458 547.882 149.771 547.587 150.047 543.993C154.357 540.443 152.205 539.272 151.951 538.288ZM234.559 571.708C233.674 571.759 232.102 567.958 230.77 568.561C226.244 570.612 226.813 572.604 221.975 571.874C220.859 571.706 211.754 575.406 214.035 579.276C214.691 579.358 214.518 579.577 215.194 579.662C215.5 579.7 215.479 579.691 219.025 580.056C220.203 581.864 220.802 581.687 221.859 579.95C226.642 579.29 233.473 577.722 236.506 577.991L236.508 577.993C236.6 575.309 236.689 575.415 236.483 574.906L237.209 575.131C244.575 577.287 247.718 574.503 247.682 580.056C247.678 580.65 247.619 589.685 250.278 586.958C250.944 586.274 246.722 585.478 251.991 575.135C253.757 571.67 247.749 570.838 247.236 570.767C245.882 570.579 244.968 567.887 243.426 569.401C239.912 572.853 239.362 571.426 234.559 571.708ZM237.545 586.1C239.949 584.102 236.247 583.809 236.225 584.939C236.224 585.079 236.226 584.941 237.545 586.1ZM163.764 583.653C167.566 584.677 164.634 581.479 164.142 581.93C163.71 582.327 164.197 583.255 163.764 583.653ZM658.473 580.944C658.899 578.758 659.753 579.873 661.418 581.261C662.618 584.539 657.785 584.478 658.473 580.944ZM160.23 582.077C160.147 580.792 156.668 576.072 157.219 582.218L157.568 583.032C159.473 583.225 160.353 583.996 160.23 582.077ZM174.922 579.779C174.178 580.084 160.559 574.279 164.755 579.84C169.637 586.305 212.72 578.554 187.774 578.92C181.366 580.179 181.042 577.243 174.922 579.779ZM213.237 579.605C210.43 577.81 209.788 579.09 209.659 579.347C207.882 582.898 212.985 579.76 213.237 579.605ZM720.753 579.116C719.992 577.409 720.074 576.543 718.515 577.497C716.599 578.67 718.971 583.464 720.753 579.116ZM201.506 578.297C199.161 582.765 203.379 579.687 203.331 579.116C203.24 578.05 202.947 578.535 201.506 578.297ZM192.44 576.95C194.887 574.228 191.483 573.815 190.944 575.207C190.878 575.379 190.741 575.738 192.44 576.95ZM179.883 573.572C177.663 573.245 176.464 572.064 176.749 574.273C177.049 576.602 185.144 577.281 179.883 573.572ZM187.61 566.805C187.565 566.505 185.719 554.042 184.841 564.474C184.822 564.692 184.939 564.653 186.157 566.866L185.974 566.977C184.198 568.1 185.66 568.68 187.729 569.603C190.449 570.816 185.618 572.807 187.665 573.467C188.176 573.629 197.187 572.901 187.61 566.805ZM169.251 551.109C162.868 550.501 151.862 562.398 162.492 564.212C165.181 564.672 164.96 572.323 170.406 569.583C175.657 566.942 168.68 566.207 167.728 560.546C167.748 560.207 167.934 557.033 169.261 556.616C175.533 554.648 173.652 552.606 173.205 552.641C170.859 552.833 171.368 551.311 169.251 551.109ZM264.254 567.429C262.613 561.474 258.339 564.79 259.028 566.406C260.674 570.27 262.675 571.322 264.254 567.429ZM201.54 566.845C197.209 570.859 203.257 569.224 203.436 568.38C203.776 566.772 202.984 567.302 201.54 566.845ZM241.647 568.271C239.045 565.173 238.836 568.716 239.644 569.243C239.793 569.34 239.646 569.241 241.647 568.271ZM317.485 566.886C315.939 566.83 316.819 570.974 318.479 568.374C317.486 566.887 317.628 566.89 317.485 566.886ZM220.129 566.128C218.114 565.763 217.025 565.73 217.911 567.462C218.755 569.107 223.157 569.414 220.129 566.128ZM552.513 558.493C550.937 558.378 551.539 559.071 551.181 560.64C554.693 565.809 555.805 562.871 555.751 562.479C555.672 561.921 553.28 558.549 552.513 558.493ZM194.494 561.297C193.16 561.642 194.568 563.262 194.681 563.391C198.597 561.223 194.658 561.255 194.494 561.297ZM264.907 562.392C269.869 565.421 272.089 547.792 266.624 554.567C257.868 552.76 264.459 558.399 264.736 558.636C264.201 560.766 262.952 561.199 264.907 562.392ZM232.703 559.677C231.002 560.762 234.42 563.632 234.436 560.665C232.703 559.677 232.837 559.59 232.703 559.677ZM184.928 556.672C183.83 550.885 182.327 551.453 181.885 551.62C180.69 552.072 181.905 553.149 180.735 553.482C179.908 553.717 179.045 552.948 178.191 553.048C177.957 553.076 178.081 553.24 176.715 555.613C176.928 558.199 177.835 557.839 180.191 557.081C180.655 556.932 185.376 559.039 184.928 556.672ZM150.881 557.055C153.971 553.982 151.053 554.081 150.841 554.17C149.153 554.876 150.18 555.299 150.881 557.055ZM270.712 551.849C271.609 553.356 271.456 553.967 272.257 553.393C274.44 551.83 270.886 551.848 270.712 551.849ZM666.422 440.599C666.57 439.95 679.196 391.587 675.383 422.112C675.121 424.212 672.312 446.69 672.733 448.366C676.136 461.884 672.746 462.02 673.983 475.738C673.735 482.582 672.73 482.387 672.885 489.369C673.027 495.789 674.016 495.612 673.972 502.057C673.917 509.934 672.424 509.719 672.628 517.67C672.979 531.388 675.136 531.341 672.711 541.13C672.324 542.695 673.788 557.277 668.039 551.341C651.534 534.302 661.96 530.519 658.91 506.927C658.66 504.994 661.399 505.071 658.629 482.575C657.755 475.482 661.509 475.372 658.803 468.909C656.004 462.225 661.432 462.785 666.422 440.599ZM166.018 547.018C165.396 545.485 164.983 546.277 163.522 546.996C161.709 553.55 166.302 547.719 166.018 547.018ZM161.142 545.146C159.288 543.934 158.612 544.692 158.964 546.805C159.002 547.023 161.019 549.63 161.142 545.146ZM556.172 538.134C556.908 533.05 552.558 534.324 550.887 539.191C550.563 541.996 547.875 547.117 555.343 544.68C559.331 543.378 556.026 539.138 556.172 538.134ZM285.582 524.406C284.207 520.26 271.2 522.018 275.804 526.181C276.133 526.48 276.299 526.629 281.336 526.621C281.464 527.267 281.591 527.915 281.718 528.561C279.21 533.055 285.037 531.14 286.569 536.122C287.973 540.691 279.582 540.052 283.187 543.275C284.424 544.379 293.201 538.551 290.875 535.409C287.141 530.364 287.523 530.255 285.582 524.406ZM455.44 414.305C455.705 391.186 478.445 428.309 474.951 447.541C471.732 465.258 468.52 464.777 469.777 482.556C470.528 493.178 468.682 493.591 468.697 500.113C468.757 525.558 476.262 543.997 458.871 543.193C457.292 543.12 457.771 542.314 456.966 523.518C456.078 502.81 455.295 502.882 455.4 501.086C455.832 493.678 456.598 493.929 456.644 486.459C456.85 453.199 455.202 453.264 455.333 450.379C456.024 435.192 455.916 435.302 455.514 420.157C455.536 418.206 455.418 416.256 455.44 414.305ZM162.267 532.586C158.082 530.057 158.286 532.745 156.561 537.158C152.784 546.825 162.288 536.308 162.671 535.268C162.714 533.277 163.192 533.144 162.267 532.586ZM259.742 535.431C258.21 533.922 258.121 535.217 257.416 537.195C258.549 542.458 261.315 536.981 259.742 535.431ZM178.143 536.15C177.353 533.858 176.723 535.478 174.753 536.875C172.801 540.527 179.505 540.097 178.143 536.15ZM343.532 423.65C345.706 422.067 369.603 404.654 371.994 405.81C375.722 407.615 374.377 416.347 373.735 420.166C374.834 433.341 351.068 433.681 336.382 464.195C329.373 478.759 336.499 487.593 333.465 505.041C330.82 520.251 339.902 527.73 329.193 526.579C322.444 525.854 313.277 540.725 312.999 534.184C312.439 521.06 314.198 476.041 311.979 465.936C310.861 460.842 325.102 437.079 343.532 423.65ZM629.26 532.332C629.071 532.244 625.433 530.557 626.865 533.1C627.84 534.83 628.438 534.015 629.26 532.332ZM220.008 532.261C223.73 531.833 220.024 529.163 219.153 530.452C218.423 531.535 219.106 531.41 220.008 532.261ZM571.37 531.627C572.562 529.565 572.333 528.485 570.007 528.931C566.881 529.531 568.041 533.43 571.37 531.627ZM639.297 532.099C648.329 529.921 636.307 528.729 635.539 530.325C635.395 530.625 635.106 531.228 639.297 532.099ZM578.801 525.123C578.64 525.235 574.632 528.009 578.837 527.517C580.674 527.303 580.098 526.424 578.801 525.123ZM148.876 526.465C148.884 524.473 149.682 523.41 147.832 523.808C144.831 524.455 146.584 529.67 148.876 526.465ZM142.816 521.888C141.48 521.22 137.541 525.39 142.811 525.081C144.058 523.276 144.685 522.822 142.816 521.888ZM156.771 521.507C156.439 519.98 155.863 520.554 154.708 521.581C156.829 525.231 156.806 521.672 156.771 521.507ZM598.285 520.557C594.128 515.131 595.382 521.419 595.431 521.663C597.032 521.287 597.048 521.618 598.285 520.557ZM282.297 519.564C282.133 517.6 282.047 516.548 280.507 517.748C280.345 517.875 278.328 519.69 282.297 519.564ZM585.751 510.705C584.591 509.75 584.628 510.496 583.934 511.803C586.408 515.249 585.97 510.891 585.751 510.705ZM629.703 500.741C624.594 498.527 623.047 497.775 621.291 502.932C621.22 503.131 614.116 502.868 618.04 506.717C618.409 507.078 619.207 505.66 623.695 509.852C623.931 510.073 623.984 509.934 627.577 510.948C633.767 515.138 628.917 508.978 628.766 508.833C627.753 507.319 623.911 502.938 627.58 504.52C634.767 507.618 631.403 501.479 629.703 500.741ZM149.626 508.803C149.858 512.002 150.884 512.345 153.659 510.805C156.694 509.121 149.986 508.818 149.626 508.803ZM144.644 505.142C142.907 501.708 142.127 500.475 139.148 503.104C135.273 510.639 146.398 508.609 144.644 505.142ZM151.74 499.188C146.134 499.385 148.67 503.677 148.598 503.948C147.37 508.22 153.158 508.038 155.289 503.908C155.422 502.471 157.026 499.003 151.74 499.188ZM610.783 504.447C610.656 504.378 610.779 504.449 609.033 504.976C609.204 508.212 611.987 505.1 610.783 504.447ZM640.928 503.865C643.228 496.635 637.264 498.882 637.053 501.053C636.221 509.598 640.694 504.177 640.928 503.865ZM397.477 428.288C438.029 418.872 442.176 451.355 436.003 462.782C414.595 502.415 367.622 505.556 359.216 501.556C316.953 481.448 365.668 432.252 397.477 428.288ZM626.609 496.193C630.18 495.504 625.949 492.463 625.098 494.511C624.645 495.603 625.268 495.349 626.609 496.193ZM629.453 477.311C625.11 479.137 625.495 480.177 620.633 480.198C610.557 480.243 631.106 484.192 631.445 484.554C631.505 484.641 630.31 498.131 633.557 492.41C634.576 490.617 637.653 477.295 629.453 477.311ZM604.805 492.291C603.896 490.639 603.289 489.673 602.416 491.435C600.433 495.439 604.638 492.411 604.805 492.291ZM154.223 486.245C159.38 477.283 149.415 481.605 148.818 481.526C143.624 480.813 143.465 481.705 141.197 486.486C140.389 488.458 140.5 488.453 139.927 489.236C138.342 491.874 141.377 493.814 142.848 490.367C143.09 489.917 142.658 489.999 142.983 489.391C143.05 489.267 142.984 489.39 143.925 487.902C144.902 487.955 152.396 489.42 154.223 486.245ZM178.955 485.607C177.091 485.132 176.874 484.42 176.252 485.556C175.739 486.497 179.225 490.99 178.955 485.607ZM202.463 481.066C197.416 481.486 201.204 486.104 201.484 486.445C209.76 490.963 206.474 480.734 202.463 481.066ZM169.335 484.699C165.67 487.404 170.955 488.193 171.329 486.497C171.72 484.719 171.055 485.004 169.335 484.699ZM192.307 482.707C189.997 476.73 187.415 482.31 187.244 482.679C186.679 488.888 194.211 487.632 192.307 482.707ZM181.75 486.224C183.831 484.398 180.211 484.758 180.026 484.776C180.793 486.086 180.561 487.268 181.75 486.224ZM176.078 476.992C172.393 477.439 169.99 476.066 171.204 479.657C172.082 482.254 185.746 480.252 176.078 476.992ZM368.233 474.775C370.159 469.283 369.104 460.588 366.461 467.967C366.404 468.531 364.767 484.665 368.233 474.775ZM323.188 277.531C332.326 272.154 330.812 279.613 336.274 295.263C336.655 296.352 336.968 297.318 337.231 298.189C337.233 297.724 337.232 297.261 337.234 296.801C337.348 297.138 337.464 297.481 337.585 297.827L337.87 298.659C340.68 306.984 339.354 307.575 342.794 316.421C343.733 318.836 342.221 324.02 344.396 329.081C344.876 329.781 345.447 330.469 346.125 331.139C346.358 331.37 346.637 332.017 346.943 332.947C347.071 333.083 347.202 333.22 347.339 333.354L347.407 333.432C348.876 335.312 351.998 352.19 352.3 353.823L352.475 354.82C353.25 359.505 352.635 359.892 355.216 364.824C359.141 372.329 356.219 373.146 359.792 380.851C361.61 384.774 362.604 388.396 363.096 391.501C362.933 392.746 362.741 393.471 362.51 393.603C362.499 393.609 362.469 393.614 362.422 393.625C362.604 397.864 361.831 400.523 361.415 400.712C357.859 402.314 341.625 409.63 322.412 429.941C305.725 447.581 311.531 457.641 291.178 457.705C290.397 457.707 290.453 457.684 281.425 457.418C269.746 457.645 136.691 460.241 135.452 456.15C134.279 452.235 160.641 411.762 163.725 407.697C196.244 364.851 210.013 355.121 235.499 333.269C263.41 309.338 294.269 294.549 323.188 277.531ZM605.034 274.653C612.415 270.453 654.951 317.342 657.269 340.159C657.922 346.59 661.308 345.475 661.689 351.906C662.659 368.274 668.346 377.879 665.224 394.734C664.704 397.541 665.749 404.48 663.562 411.358C661.556 417.666 663.207 417.934 660.662 424.03C660.57 424.248 660.638 424.25 660.33 426.98C660.169 428.914 659.837 432.871 653.83 450.353C651.622 456.777 640.679 453.42 625.688 455.597C624.852 455.718 624.854 455.659 594.467 454.815C579.623 454.403 569.214 458.116 540.808 455.066C536.465 454.599 536.522 456.002 486.207 456.07C479.149 456.08 489.405 443.61 483.167 428.986C478.902 418.989 479.348 418.929 473.021 410.067C465.275 399.218 474.477 398.767 490.042 383.049C493.642 379.414 553.467 322.663 558.993 317.421C601.102 277.476 600.665 277.139 605.034 274.653ZM553.567 442.435C550.833 441.483 549.47 439.643 549.342 442.56C549.17 446.525 558.749 446.097 553.567 442.435ZM174.865 442.803C173.551 442.192 173.328 441.343 172.614 442.735C171.806 444.315 175.806 446.716 174.865 442.803ZM214.585 437.668C214.355 437.017 211.775 429.724 209.281 430.906C202.207 434.262 213.544 445.764 214.585 437.668ZM556.918 437.879C554.867 433.86 551.748 438.322 551.495 438.685C557.592 441.427 557.118 438.271 556.918 437.879ZM188.925 435.744C188.882 435.139 184.902 434.714 187.885 437.075C188.923 435.747 188.933 435.879 188.925 435.744ZM251.119 431.195C248.533 430.388 245.018 434.499 251.186 435.953C251.569 435.889 260.835 434.228 251.119 431.195ZM170.265 430.267C170.106 430.269 170.264 430.268 169.139 431.902C172.434 434.468 171.266 430.261 170.265 430.267ZM196.595 415.073C200.193 412.958 196.086 412.655 195.609 413.328C194.8 414.474 195.488 414.347 196.595 415.073ZM188.593 412.47C188.392 412.125 183.654 411.931 187.801 414.247C188.593 412.471 188.67 412.604 188.593 412.47ZM188.805 401.619C186.934 400.854 186.385 399.671 185.737 401.557C184.832 404.194 190.243 406.17 188.805 401.619ZM201.013 393.248C193.687 386.47 197.333 395.374 197.334 395.812C197.293 410.687 201.636 395.125 201.723 394.768C201.013 393.249 201.111 393.339 201.013 393.248ZM3.25182 263.069C8.57297 262.325 74.6348 263.23 80.8417 263.314C86.9317 263.398 85.4596 270.189 85.4178 297.622C85.4101 302.622 86.1138 346.837 86.12 347.083C86.6779 351.853 88.1609 397.206 85.6317 398.425C82.9287 399.724 58.3445 398.348 35.2411 398.8C29.208 398.917 29.2282 396.788 23.6454 398.703C23.4012 398.769 4.56839 399.321 3.38268 398.332C1.61733 396.843 1.59849 334.241 1.59655 328.664C1.59455 320.332 -0.0888168 320.415 1.41686 312.192C3.42998 301.197 -3.99556 264.085 3.25182 263.069ZM140.241 274.328C140.002 266.123 137.64 262.202 145.848 262.648C165.027 263.691 168.222 260.696 168.276 266.564C168.32 271.301 168.825 325.63 168.825 325.755C168.782 362.018 168.501 376.123 168.777 382.679C165.226 387.043 161.451 391.826 157.395 397.116C155.951 397.161 154.453 397.556 151.718 398.67C150.488 399.169 141.05 399.497 141.266 395.608C142.914 366.097 140.524 284.03 140.241 274.328ZM418.581 261.969C434.6 256.405 432.186 266.038 433.03 283.062C433.72 296.962 433.205 296.801 433.821 380.09C433.944 384.668 435.49 397.033 430.098 397.202C420.371 397.505 416.765 398.597 416.913 388.826C418.152 307.457 415.053 263.193 418.581 261.969ZM75.6044 372.685C75.4236 372.504 74.4987 371.578 73.6864 375.219C73.793 375.88 82.1533 416.927 77.5467 382.101C77.4454 381.335 76.4084 373.495 75.6044 372.685ZM711.514 260.195C712.374 260.258 721.481 260.93 721.305 264.623C719.449 303.339 723.315 391.427 719.88 394.26C716.425 397.106 712.681 394.728 707.755 394.789C703.589 394.841 698.047 397.1 696.66 394.789C695.275 392.477 695.273 356.51 695.273 356.42C695.269 356.339 693.777 325.298 694.146 310.232C695.246 265.463 691.029 260.391 699.866 260.263C703.748 260.206 707.632 260.251 711.514 260.195ZM858.024 260.196C906.284 260.196 906.416 257.585 910.345 259.032C913.412 260.163 913.291 269.507 913.279 270.449C912.87 301.695 913.079 301.672 912.94 304.383C909.605 369.627 913.509 369.657 912.671 375.265C911.531 382.887 912.344 382.792 912.929 390.776C913.415 397.43 899.48 393.636 887.141 394.07C882.719 394.226 881.563 394.267 831.821 394.058C825.059 394.03 830.125 389.246 829.09 379.098C827.688 365.375 830.775 365.422 829.487 353.904C829.465 353.64 829.255 265.24 829.54 263.597C830.394 258.757 848.358 260.22 858.024 260.196ZM760.026 260.197C772.517 260.732 777.942 258.826 777.863 262.689C776.859 311.832 779.149 392.078 776.48 393.603C776.109 393.809 750.029 397.356 750.518 390.755C753.167 355.239 748.535 261.004 754.14 260.474C756.095 260.29 758.071 260.38 760.026 260.197ZM730.034 251.191C733.468 248.597 732.03 261.685 732.031 265.597C732.075 385.259 732.165 385.824 729.644 388.555C724.282 394.364 727.565 382.103 727.581 382.019C728.789 331.97 724.851 331.86 726.355 327.79C728.246 322.671 727.539 294.392 727.324 278.205C727.441 275.015 726.864 253.587 730.034 251.191ZM115.799 153.156C123.865 150.773 124.994 147.584 130.726 153.655C133.581 156.682 129.195 181.147 132.47 196.672C135.599 211.505 130.306 211.653 132.429 226.764C133.624 235.269 131.037 296.952 133.893 307.379C134.26 308.72 132.539 308.663 133.498 324.768C134.53 342.085 126.802 341.926 116.216 358.995C99.6593 385.688 99.3879 385.375 98.4178 387.912C98.273 388.288 94.1444 393.388 94.3944 384.94C96.3601 318.742 94.002 292.968 93.2743 285.007C92.1471 272.679 94.1275 257.318 94.4354 254.927C94.5868 253.755 95.1155 254.108 100.267 241.35C102.1 236.812 122.182 187.082 121.76 184.069C121.507 182.295 117.675 180.214 116.593 182.026C111.871 189.937 90.9005 244.97 89.286 247.942C86.6939 252.705 39.6782 248.258 29.4774 250.38C27.9287 250.702 8.89367 251.032 7.09947 251.063C-0.668411 251.199 5.05238 246.614 13.4266 226.583C35.1562 174.607 40.4305 150.916 46.871 150.846C60.3442 150.701 58.5411 154.941 58.1053 155.823C30.627 211.509 33.0946 221.217 38.3524 216.377C40.1439 214.725 56.3245 167.351 55.6962 183.126C55.663 183.88 47.8296 203.756 47.1239 205.546C41.1193 220.783 39.557 220.771 38.1434 220.76C20.4716 220.621 30.1238 235.064 39.1297 234.684C45.7222 234.406 44.1916 231.977 47.3602 226.039C48.9506 223.06 53.3407 214.833 63.5223 187.053C64.3253 184.86 62.4419 177.536 70.1405 177.779C82.4761 178.168 82.7359 177.843 83.2919 178.739C84.0939 180.035 83.4936 188.94 84.7508 194.762C85.1135 196.437 84.7044 196.375 81.0838 207.456C78.3586 215.795 79.8047 218.313 71.1571 219.432C65.2879 220.238 55.3681 231.167 75.9755 234.719C81.0086 235.58 91.4072 196.667 103.025 180.144C103.533 179.422 101.44 178.926 106.015 169.511C110.822 159.615 106.657 155.857 115.799 153.156ZM444.401 246.114C446.598 238.497 449.695 245.366 448.66 248.166C446.394 254.304 447.177 292.12 447.526 293.747C451.698 313.152 446.603 359.327 450.026 371.489C450.455 373.02 444.056 386.912 443.402 387.448C436.286 393.251 444.209 372.082 440.283 349.936C440.221 349.569 441.092 305.913 441.254 303.438C439.396 260.493 438.905 260.465 440.122 256.95C443.634 246.798 444.143 247.009 444.401 246.114ZM882.015 386.687C881.689 386.544 875.504 383.822 877.61 386.776C878.637 388.216 881.693 386.834 882.015 386.687ZM898.189 273.291C897.242 267.518 884.657 272.225 891.953 274.764L892.314 274.883C892.078 275.167 893.299 276.393 891.014 276.435C890.367 276.447 890.376 276.287 890.333 276.32C885.21 280.186 894.612 277.156 894.983 277.036C896.772 280.158 894.029 284.01 892.777 284.519C885.768 287.364 888.782 302.147 883.137 304.198C877.259 306.334 880.955 308.127 881.296 308.076C885.06 307.502 883.357 310.409 886.477 312.678C892.241 316.866 887.422 318.006 885.178 324.771C884.576 324.701 883.974 324.629 883.373 324.558C879.772 323.991 880.119 326.607 872.552 326.374C867.189 326.209 873.115 329.624 874.935 330.613L875.42 330.871C873.616 331.949 873.721 331.974 871.619 332.162C866.261 331.177 866.399 334.358 870.074 343.033C871.942 347.439 874.085 345.525 875.075 347.349C877.176 351.229 874.231 358.929 874.233 359.721C874.266 366.238 868.731 363.869 864.82 363.45C860.14 362.948 863.575 367.138 860.415 374.453C859.288 377.065 865.626 379.914 866.712 379.704C870.65 378.94 870.475 380.539 874.515 380.048C879.991 379.38 879.864 380.459 883.388 384.642C888.227 386.651 907.829 385.811 895.853 383.028C892.852 382.33 896.683 377.964 901.598 380.268C907.405 382.989 906.057 356.166 900.451 352.358C893.403 347.576 899.616 345.386 903.382 341.168C902.32 336.427 902.85 336.491 902.871 331.573C900.338 317.854 888.638 327.163 887.884 326.106C885.919 323.32 891.801 321.512 891.848 320.867C892.119 316.811 892.882 316.007 896.789 317.266C898.263 317.74 901.507 313.32 901.39 312.181C900.444 303.043 901.048 303.193 900.835 302.444C897.323 290.136 899.284 289.866 898.89 288.841C895.835 280.928 898.536 275.413 898.189 273.291ZM783.886 292.766C783.882 289.32 783.832 238.434 788.365 249.953C788.536 250.39 788.475 263.455 788.47 264.629C788.378 271.125 788.696 270.98 787.351 277.274C785.909 284.032 789.387 283.929 788.334 290.85C786.108 305.467 791.291 305.822 787.16 319.924C786.302 322.85 787.859 328.022 788.063 328.698C788.645 330.629 788.521 330.643 788.457 353.899C788.451 356.284 786.085 358.799 787.091 362.65C793.107 385.683 784.629 385.739 784.043 384.107C783.707 383.157 783.922 328.681 783.886 292.766ZM866.738 382.044C863.923 383.619 865.45 384.18 865.642 384.223C866.944 384.512 866.872 384.189 867.397 383.022L866.738 382.044ZM919.51 258.719C917.89 252.528 926.085 235.5 925.599 251.031C925.137 265.839 926.865 283.68 924.383 292.779C923.35 311.158 926.057 311.694 924.214 315.183C923.058 317.373 926.618 317.476 925.543 346.112C925.506 347.084 928.552 391.116 920.128 382.994C916.813 379.799 922.329 338.087 919.448 329.571C918.668 327.266 921.217 324.86 920.362 320.84C916.611 303.232 922.134 283.244 919.754 277.402C917.915 272.889 923.113 272.491 919.51 258.719ZM70.076 378.067C70.3075 383.319 72.0447 378.346 71.993 378.234C71.9069 378.107 71.9918 378.234 70.076 378.067ZM841.472 333.559C836.319 327.199 841.175 336.692 838.243 347.973C835.471 358.637 840.672 358.295 841.315 356.699C841.449 356.366 849.95 335.194 844.761 353.858C842.931 360.437 843.758 368.194 843.89 369.438C843.824 370.413 842.826 385.1 852.268 378.247C854.22 376.83 856.034 367.119 850.737 355.629C848.767 351.353 856.911 352.601 855.94 349.072C854.855 345.13 855.683 344.561 852.24 342.207C843.418 336.173 854.21 336.33 854.23 335.464C854.275 332.489 846.214 330.857 844.774 334.681C842.683 340.24 842.241 334.509 841.472 333.559ZM793.016 150.622C811.076 150.414 823.806 147.266 816.303 158.868C816.21 159.013 811.744 167.985 803.948 187.102C801.416 193.312 796.352 191.995 782.352 192.27C781.26 192.467 775.377 193.534 777.815 205.376C779.265 212.408 790.716 221.288 784.255 232.596C783.735 233.507 785.781 234.115 780.15 245.079C777.159 250.903 769.629 246.479 762.973 247.375C753.806 248.611 753.821 246.884 754.007 246.184C755.421 240.879 757.703 237.109 752.425 238.817C743.78 241.615 744.235 247.899 744.243 367.476C744.243 370.091 745.92 380.608 740.595 379.205C737.863 378.484 738.287 377.073 738.258 263.659C738.256 255.372 739.448 255.46 738.324 247.2C735.505 226.486 758.834 241.071 759.415 231.687C760.27 217.874 753.444 222.054 739.641 222.555C726.375 223.037 726.071 248.865 719.279 248.02C705.681 246.327 693.703 252.776 701.004 241.451C703.931 236.91 703.244 232.931 718.188 204.413C719.446 202.013 718.861 201.802 731.653 173.331C741.203 152.077 740.445 150.672 743.513 150.629C747.472 150.573 747.4 151.148 793.016 150.622ZM369.916 292.766C369.912 289.32 369.862 238.435 374.394 249.953C374.565 250.39 374.506 263.455 374.5 264.629C374.409 271.125 374.725 270.98 373.381 277.274C371.938 284.032 375.417 283.929 374.364 290.85C372.138 305.467 377.32 305.822 373.189 319.924C372.332 322.85 373.89 328.023 374.094 328.698C374.676 330.629 374.551 330.643 374.487 353.899C374.481 356.284 372.114 358.8 373.12 362.65C375.228 370.72 375.555 375.969 375.067 379.313C374.516 377.792 373.879 376.238 373.147 374.659L372.973 374.271C372.606 373.432 372.507 373.023 372.478 372.895C372.427 372.668 372.405 372.531 372.287 371.325C372.171 370.145 371.97 368.096 371.309 365.62C370.942 364.242 370.468 362.866 369.885 361.46C369.872 342.131 369.937 314.157 369.916 292.766ZM33.3006 374.458C28.565 376.756 34.4427 377.149 34.9081 376.055C35.4164 374.855 34.6666 375.174 33.3006 374.458ZM70.7987 371.51C69.8636 369.996 69.6011 370.372 68.0926 371.261C68.7541 377.648 71.0038 371.85 70.7987 371.51ZM175.177 256.878C175.216 252.142 188.907 224.723 183.021 246.263C181.789 250.775 184.772 256.989 184.052 259.854C182.023 267.935 183.972 267.933 184.228 276.284C185.325 312.1 182.793 311.99 183.122 315.076C184.372 326.822 184.229 326.638 184.237 338.368C184.245 348.76 184.48 357.437 184.398 364.531C181.963 367.18 179.44 370.013 176.8 373.08C176.838 364.904 176.824 352.626 176.309 334.497C176.174 328.288 175.02 275.402 175.177 256.878ZM498.106 223.097C499.51 222.802 514.872 219.573 515.949 223.735C517.096 228.166 516.349 228.105 516.049 232.606C515.779 316.67 515.684 316.729 517.306 323.847C518.928 330.971 515.474 332.036 516.548 338.946C501.53 353.215 485.813 368.168 480.822 372.997C468.794 372.989 457.93 372.825 457.327 372.303C456.473 371.516 455.068 226.84 455.307 225.805C457.291 217.776 461.431 225.293 472.786 222.665C475.303 222.082 489.767 222.256 491.248 222.273C492.526 222.289 495.017 223.748 498.106 223.097ZM76.7088 359.912C73.9785 356.71 69.2046 376.738 75.3827 366.65C76.9085 360.799 77.3786 360.699 76.7088 359.912ZM30.3456 365.24C28.3786 365.375 29.0391 366.331 30.3788 367.586C33.3745 365.291 30.5363 365.228 30.3456 365.24ZM24.6151 364.333C24.4144 364.311 21.6222 364.315 24.6141 366.733C25.754 365.316 26.4796 364.546 24.6151 364.333ZM16.536 363.999C14.9269 363.782 14.4825 363.089 14.076 364.628C13.5304 366.699 18.7134 367.705 16.536 363.999ZM374.949 211.386C371.928 205.505 381.53 204.767 384.187 207.003C386.808 209.215 385.064 299.295 384.909 307.32C384.485 329.182 386.299 360.933 383.991 361.839C378.182 364.109 380.463 339.264 380.602 330.606C379.124 322.707 380.956 287.047 380.294 267.523C378.746 221.911 380.111 221.435 374.949 211.386ZM788.92 211.386C785.899 205.505 795.5 204.767 798.158 207.003C800.778 209.217 799.035 299.295 798.88 307.32C798.456 329.183 800.269 360.937 797.961 361.839C792.152 364.108 794.433 339.264 794.573 330.606C793.094 322.707 794.926 287.047 794.264 267.523C792.716 221.911 794.081 221.435 788.92 211.386ZM937.783 210.36C944.425 195.054 940.083 234.788 941.16 241.388C942.184 247.669 940.838 247.567 940.79 253.962C940.248 325.5 940.919 339.667 941.271 347.111C941.974 361.96 937.315 360.536 936.564 359.76C935.79 358.936 937.134 280.273 937.253 273.361C937.284 215.241 935.776 214.983 937.783 210.36ZM867.722 354.836C862.266 358.351 865.341 359.623 865.741 359.541C869.384 358.787 867.881 355.215 867.722 354.836ZM188.956 305.379C188.908 228.95 188.244 221.147 193.465 222.559C196.778 223.456 196.669 223.439 200.159 223.305C201.462 223.255 202.695 224.344 197.053 239.303C192.199 252.168 190.874 252.023 192.252 265.616C192.801 271.031 192.061 270.931 192.254 276.265C193.66 315.048 194.232 339.518 194.171 354.391C192.694 355.85 191.2 357.359 189.678 358.931C189.779 350.582 189.848 336.416 189.154 311.251C189.055 308.304 188.958 308.449 188.956 305.379ZM872.55 356.348C876.345 353.072 865.324 347.054 868.49 353.028C871.834 356.962 872.232 356.622 872.55 356.348ZM30.9315 339.786C28.286 336.583 27.4538 347.017 27.409 347.061C25.5383 348.818 29.8756 350.194 27.5712 351.105C27.217 351.245 14.6195 356.226 24.5292 354.451C26.6634 357.551 27.3059 356.185 27.3651 356.171C38.1104 359.002 33.1943 342.526 30.9315 339.786ZM862.624 356.185C862.707 356.017 865.261 350.836 862.011 354.001C860.985 354.999 861.752 354.966 862.624 356.185ZM265.878 353.87C265.889 353.559 266.037 349.288 263.089 351.272C260.209 353.212 262.871 358.43 265.878 353.87ZM767.797 352.621C767.658 352.619 767.794 352.622 766.549 353.845C770.495 357.87 767.875 352.676 767.797 352.621ZM407.041 166.066C411.488 163.296 408.168 174.463 408.481 175.455C409.972 180.159 408.492 180.144 408.493 185.067C408.499 205.094 409.625 205.024 409.625 308.289C409.625 329.276 412.726 330.605 400.645 347.815C390.408 362.398 393.089 341.825 392.591 299.558C392.602 268.361 392.643 268.369 392.55 267.512C390.436 248.088 393.744 214.513 392.28 210.297C391.786 208.873 390.496 205.154 396.216 191.877C406.523 167.955 405.14 167.251 407.041 166.066ZM15.9813 350.271C15.1869 350.704 16.2196 354.371 17.6454 351.017C15.9823 350.272 16.1092 350.202 15.9813 350.271ZM815.326 180.211C815.695 179.539 822.255 154.815 824.687 159.111C826.169 161.729 822.278 161.959 823.771 196.706C824.902 223.02 822.571 222.897 823.543 249.103C820.474 309.039 831.867 321.512 811.926 347.515C804.079 357.747 807.402 344.335 806.002 331.528C805.502 326.961 806.67 240.529 806.777 232.612C807.144 205.452 802.217 204.064 815.326 180.211ZM199.561 264.713C199.987 263.157 223.671 262.126 224.091 262.844C224.278 263.186 225.437 300.181 225.539 303.43C225.829 312.697 225.862 320.305 225.777 326.362C216.236 334.499 208.156 341.175 199.842 348.948C199.796 339.401 199.719 328.113 199.478 315.078C199.404 311.049 198.614 268.197 199.561 264.713ZM560.436 341.616C559.042 343.831 562.466 343.472 561.996 342.255C561.658 341.381 561.456 341.711 560.613 341.637L560.436 341.616ZM657.57 151.489C677.098 154.9 677.984 149.201 683.977 151.791C686.948 153.079 685.454 211.89 685.322 217.119C684.709 241.235 686.947 241.217 686.36 243.222C682.357 256.894 688.42 257.473 686.588 263.677C682.609 277.142 687.503 277.96 686.341 284.99C683.537 301.946 691.18 317.875 683.56 323.524C679.044 328.229 674.381 334.026 669.986 339.886C668.885 331.253 664.612 322.23 660.116 314.577C656.655 308.686 652.528 302.727 648.191 297.112C647.671 276.507 646.873 256.153 647.725 253.932C652.846 240.605 653.636 241.116 658.38 227.722C677.911 172.565 682.293 173.037 680.119 168.482C676.659 161.233 671.716 179.298 664.238 193.771C661.572 198.931 662.848 199.236 660.397 204.469C656.822 212.102 657.728 212.301 654.318 219.852C644.103 242.477 643.344 242.143 642.832 244.238C641.366 250.228 636.733 249.043 619.769 248.785C613.468 248.69 619.299 242.792 625.933 224.982C628.922 217.468 627.832 215.209 627.651 214.199C627.326 212.381 626.232 206.272 605.157 209.044C602.106 209.445 600.397 209.672 587.302 243.119C584.731 249.681 582.761 248.921 562.509 249.038C555.545 249.078 561.448 244.255 567.579 227.867C580.505 193.32 582.533 194.12 583.015 190.956C584.472 181.367 594.845 162.563 595.214 160.802C597.616 149.301 601.26 151.569 612.965 151.725C654.056 152.273 654.055 150.875 657.57 151.489ZM905.706 339.51C908.893 332.93 904.775 323.838 904.621 329.65C904.403 337.921 904.406 337.953 904.485 338.67C904.586 339.592 905.602 338.566 905.706 339.51ZM346.057 260.198C358.547 260.733 363.971 258.826 363.892 262.689C363.449 284.408 363.644 312.203 363.775 336.592C363.482 335.352 363.18 334.138 362.876 333.028C362.576 331.934 362.204 330.674 361.768 329.491C361.554 328.908 361.236 328.099 360.803 327.23C360.534 326.691 359.635 324.892 357.919 323.12C357.907 323.027 357.895 322.906 357.885 322.754C357.826 321.891 357.863 321.406 357.864 319.53C357.865 318.79 357.856 317.637 357.737 316.391C357.622 315.187 357.35 313.236 356.515 311.087L356.514 311.085L356.042 309.838C355.051 307.135 354.793 305.807 354.503 304.313C354.033 301.897 353.5 298.943 351.833 293.993L351.484 292.976C350.317 289.632 349.512 286.703 348.752 283.919C348.13 281.643 347.191 278.019 345.848 275.095C344.872 272.97 342.646 268.943 338.306 266.317C338.743 262.663 339.344 260.553 340.169 260.475C342.125 260.291 344.101 260.381 346.057 260.198ZM473.966 332.234C471.123 331.413 467.654 336.25 472.782 335.367C476.24 332.893 474.224 332.309 473.966 332.234ZM15.4413 269.656C15.3759 269.506 11.4463 267.965 14.1766 273.345C15.4622 279.779 16.6787 279.681 15.2206 286.063C13.5927 293.184 17.8281 293.825 14.0936 300.635C12.8075 302.981 13.3898 303.194 15.7753 304.596C22.2473 311.256 10.6601 324.741 19.7909 327.385C21.7555 327.954 29.1294 340.799 25.8378 330.6C25.7188 330.231 25.7818 330.241 25.0741 325.787C28.3557 316.801 29.0182 316.636 28.3436 316.186C27.6686 315.736 27.699 316.121 25.3358 317.614C23.6722 318.664 23.0373 318.303 22.9325 320.938C22.8673 322.594 22.2946 322.046 20.8163 322.607C17.2266 317.344 21.745 317.858 32.0272 309.786C33.9666 312.108 34.5545 313.69 36.3124 311.195C37.695 309.197 37.578 308.817 36.659 307.157L36.2186 306.358C40.1054 303.284 42.1856 302.403 38.5028 299.185C35.6478 296.69 45.9988 295.51 40.5106 287.628C39.7644 286.553 42.5668 276.12 36.8876 281.65C35.5442 282.958 34.6556 280.113 33.1395 279.582C30.7666 278.751 30.4369 279.251 29.4969 281.097L29.0477 281.972C28.2388 282.519 27.4298 283.066 26.621 283.613C17.0644 278.832 23.8969 276.513 24.4628 276.664C33.6609 279.177 49.8604 274.705 40.2128 272.962C29.9345 271.104 27.2762 274.688 24.5809 273.324C20.4694 271.242 20.3608 272.203 15.8319 272.382C15.8007 272.162 15.448 269.703 15.4413 269.656ZM952.892 173.477C952.049 171.023 960.279 147.905 960.3 161.775C960.427 246.634 961.921 246.694 960.487 253.926C957.365 269.671 961.527 321.596 958.171 328.779C953.901 337.917 951.43 332.204 951.505 331.628C953.31 317.917 951.834 290.546 952.699 266.567C952.7 211.165 954.568 210.991 952.929 206.472C951.724 203.153 954.642 199.36 954.062 197.683C949.522 184.545 956.449 183.806 952.892 173.477ZM525.144 208.342C525.716 205.159 528.322 204.253 528.291 207.37C527.664 269.905 527.403 269.873 527.582 275.305C528.702 309.309 526.729 309.258 527.261 312.158C527.839 315.314 528.28 321.081 528.487 327.608C526.958 329.06 525.381 330.558 523.773 332.085C524.027 292.944 521.883 292.721 522.665 288.945C524.514 280.02 523.753 243.025 522.86 231.661C522.325 219.755 523.067 219.929 525.144 208.342ZM867.698 325.937C866.418 326.551 866.433 326.44 866.417 326.552C866.286 327.495 868.773 328.165 867.698 325.937ZM619.297 321.971C619.078 322.016 617.702 322.306 616.593 322.962C616.655 323.37 616.852 323.823 617.226 324.325C617.705 323.979 618.338 323.48 619.001 322.823L618.346 324.709L617.858 325.074L618.345 324.71L618.126 325.337C618.855 326.013 619.57 326.335 620.225 326.398L619.663 323.717L620.81 322.855L620.809 322.854L619.663 323.717L619.39 322.42C619.438 322.369 619.487 322.319 619.535 322.266L619.537 322.264C619.581 322.216 619.623 322.166 619.666 322.117C619.548 322.066 619.425 322.015 619.297 321.971ZM285.001 324.738C284.767 324.359 280.365 324.315 284.283 326.323C285 324.739 285.073 324.857 285.001 324.738ZM35.2284 316.375C33.4389 317.247 35.4789 318.193 34.2176 319.889C31.0909 324.095 36.994 321.167 37.2381 321.047C38.8001 319.853 39.2907 319.205 37.1688 318.017L35.2284 316.375ZM238.999 72.6063C247.553 72.3154 240.662 83.7126 236.397 93.0155C229.56 107.93 234.334 136.004 233.197 143.349C232.302 149.13 231.681 152.011 231.252 152.584C239.03 152.36 239.896 152.066 241.881 152.413C261.409 155.824 262.295 150.125 268.289 152.716C271.259 154.007 269.766 212.816 269.634 218.044C269.02 242.159 271.258 242.141 270.672 244.146C266.668 257.818 272.732 258.397 270.899 264.6C266.92 278.066 271.815 278.884 270.652 285.915C270.159 288.895 269.99 291.815 270.003 294.635C257.294 302.337 244.497 310.86 232.277 320.879C234.26 303.177 230.514 258.822 232.037 254.856C237.158 241.53 237.948 242.041 242.691 228.646C262.222 173.492 266.604 173.961 264.431 169.407C260.971 162.158 256.026 180.223 248.549 194.696C245.883 199.855 247.158 200.161 244.708 205.393C241.133 213.027 242.039 213.226 238.63 220.777C228.416 243.399 227.656 243.068 227.143 245.162C225.677 251.152 221.044 249.968 204.081 249.71C197.779 249.615 203.61 243.717 210.245 225.907C213.234 218.393 212.144 216.134 211.963 215.124C211.638 213.306 210.544 207.197 189.468 209.969C186.417 210.37 184.708 210.599 171.613 244.044C169.043 250.606 167.072 249.844 146.82 249.962C139.856 250.001 145.76 245.18 151.89 228.792C164.816 194.245 166.844 195.044 167.325 191.881C168.782 182.291 179.158 163.483 179.525 161.725C181.928 150.225 185.571 152.494 197.276 152.65C214.876 152.885 224.938 152.759 230.966 152.591C229.843 150.791 230.558 125.399 229.983 97.7381C233.067 80.0079 226.238 73.042 238.999 72.6063ZM43.7645 313.163C43.7476 312.862 41.5667 309.729 40.6571 315.22C39.2004 314.231 39.3751 313.267 37.2157 314.139C38.2389 315.827 38.3452 315.723 40.4354 315.851C42.008 318.759 43.8098 314.087 43.7645 313.163ZM536.849 151.48C548.742 151.254 544.919 157.595 545.772 196.689L545.909 202.131C546.253 217.695 544.685 218.142 546.268 234.58C546.959 241.757 544.211 249.693 546.246 262.722C546.361 263.468 546.353 293.576 546.339 310.664C544.868 312.059 542.663 314.15 539.938 316.736C540.157 307.689 540.387 293.697 540.387 271.42L540.384 236.49C540.385 228.978 540.695 229.061 539.125 221.856C538.887 220.749 544.82 165.349 534.96 164.435C528.383 163.828 508.528 165.266 482.514 163.985C460.556 162.905 466.21 173.251 463.89 178.171C460.562 185.231 458.417 186.345 464.1 191.851C468.423 196.038 522.599 190.774 523.553 194.649C524.124 196.981 519.732 210.057 514.557 209.272C504.232 207.704 490.949 209.309 453.424 208.461C446.02 208.294 438.034 243.418 435.733 246.011C430.177 252.27 417.398 252.098 423.86 241.054C424.562 239.854 423.24 239.418 430.393 224.956C434.54 216.572 452.001 171.424 453.813 166.74C458.237 155.303 457.654 152.33 469.919 152.124C485.035 151.872 518.119 151.805 522.311 151.798C527.587 151.787 535.687 151.518 536.849 151.48ZM607.886 304.758C602.763 312.531 609.699 310.275 610.002 309.943C610.506 309.388 609.592 308.141 609.758 305.174C609.134 305.035 608.509 304.896 607.886 304.758ZM760.523 303.309C760.187 301.58 760.595 300.904 758.973 301.169C757.743 301.372 756.506 307.362 760.523 303.309ZM873.551 300.202C871.308 300.478 869.981 300.91 871.657 302.419C873.775 304.325 877.849 300.968 873.551 300.202ZM557.541 261.99C558.775 260.613 581.769 261.919 582.101 262.158C582.686 262.59 582.992 268.793 583.144 275.583C578.245 280.243 570.195 287.982 556.998 300.537C557.08 292.434 557.049 281.376 556.816 265.611C557.09 262.903 556.774 262.845 557.541 261.99ZM62.4169 294.679C61.2557 293.91 60.3284 296.41 60.2479 296.629C61.5927 301.604 64.4251 296.01 62.4169 294.679ZM852.206 289.947C850.942 289.959 851.477 290.461 851.202 291.804C853.264 294.584 854.167 289.928 852.206 289.947ZM616.223 263.788C616.649 262.232 640.33 261.201 640.753 261.919C640.873 262.149 641.388 277.426 641.772 289.22C635.81 282.251 629.526 275.866 623.913 271.252C621.482 269.253 618.781 267.258 616.003 265.699C616.063 264.767 616.135 264.11 616.223 263.788ZM837.72 285.779C835.995 285.411 836.14 286.019 835.855 287.862C838.699 291.237 839.124 286.081 837.72 285.779ZM300.234 262.009C302.538 261.051 305.96 263.448 305.991 264.618C306.085 268.086 306.164 271.153 306.229 273.87C297.854 278.609 289.118 283.434 280.249 288.572C279.874 269.224 275.019 264.783 284.514 263.184C292.509 261.838 292.816 265.091 300.234 262.009ZM903.695 283.786C902.013 283.539 902.58 284.381 902.379 286.013C905.092 291.158 905.265 284.019 903.695 283.786ZM872.557 284.934C870.962 285.233 871.626 285.745 872.326 287.213C875.905 288.718 874.528 284.566 872.557 284.934ZM72.8592 277.559C72.4524 277.922 69.6674 277.989 72.034 282.182C72.2232 282.51 75.5356 283.102 72.8592 277.559ZM885.216 277.228C884.614 276.303 880.789 277.163 884.209 278.97C885.289 278.231 885.943 278.349 885.216 277.228ZM70.2655 275.174C69.861 275.137 64.8534 274.691 65.6219 276.981C65.8934 277.785 68.8716 277.182 69.1532 277.125L69.9247 276.19L70.2655 275.174ZM849.305 272.587C844.514 274.635 849.899 275.329 851.235 274.333C852.898 273.093 851.174 273.173 849.305 272.587ZM313.532 269.696C313.744 259.985 314.558 250.061 317.531 251.366C318.321 251.713 318.021 253.062 318.197 266.986C318.004 267.094 317.822 267.198 317.65 267.297L317.159 267.582C315.96 268.287 314.751 268.991 313.532 269.696ZM595.086 243.282C596.233 234.693 599.377 237.04 599.538 237.595C600.007 239.214 599.909 250.861 599.899 252.014C599.891 252.953 598.393 261.843 598.25 262.696C598.274 263.038 598.294 263.375 598.316 263.708C597.695 263.965 597.068 264.268 596.44 264.625C594.09 265.962 592.397 267.156 590.135 269.112C590.165 265.667 590.196 261.916 590.223 257.836C590.263 251.798 594.738 245.889 595.086 243.282ZM114.856 261.679C113.194 260.443 111.941 260.825 112.777 262.715C112.86 262.894 116.787 267.431 114.856 261.679ZM324.935 243.244C327.879 230.395 337.208 239.708 336.367 241.501C332.666 249.384 334.391 249.79 331.552 257.998C330.89 259.912 330.492 261.893 330.264 263.861C328.058 263.735 326.003 264.029 324.175 264.515C324.408 256.867 324.92 248.676 324.935 243.244ZM478.518 259.135C477.397 258.766 476.914 261.941 479.232 260.643C478.965 259.516 479.287 259.389 478.518 259.135ZM356.395 152.938C398.388 152.921 398.399 151.482 401.974 152.201C403.039 152.416 406.081 153.03 400.008 165.637C388.443 189.639 388.407 189.692 387.062 191.581C382.032 198.648 353.987 183.05 366.608 212.424C376.048 234.395 370.168 235.005 370.078 235.538C369.914 236.606 368.719 244.398 365.075 248.08C362.214 250.969 341.828 249.501 341.715 249.487C340.874 249.229 339.793 248.897 341.15 238.511C341.248 237.774 343.494 236.764 344.82 234.587C351.004 224.431 332.563 223.895 331.17 223.855C307.409 223.168 316.798 249.161 304.924 249.667C295.697 250.059 281.168 252.03 283.447 247.115C299.322 212.892 298.165 212.567 312.235 177.403C315.729 165.925 317.894 166.83 320.094 156.829C321.575 150.093 324.604 152.952 356.395 152.938ZM605.83 226.788C605.927 220.908 612.63 221.929 614.488 221.926C620.02 221.913 612.268 236.117 611.338 238.295C608.089 245.571 607.728 254.884 605.842 247.128C605.518 245.795 605.804 228.417 605.83 226.788ZM953.126 148.448C959.274 148.658 953.61 154.738 951.309 158.933C948.661 163.763 947.172 162.721 897.806 162.729C885.811 162.731 881.832 158.968 878.732 170.613C876.426 179.275 872.12 181.571 878.585 190.75C880.543 193.53 881.281 192.314 921.088 191.525C922.351 191.499 938.842 186.771 937.388 193.753C934.942 205.485 914.43 201.904 912.362 201.543C909.714 201.081 903.221 203.399 896.948 202.114C894.685 201.652 872.724 202.203 870.618 202.257C861.225 202.493 862.863 211.859 857.299 220.123C855.05 223.463 858.825 231.272 864.818 231.263C907.225 231.196 925.044 228.087 919.778 236.261C916.649 241.117 918.065 241.918 914.121 246.014C912.142 248.068 911.653 246.932 894.897 246.611C852.295 246.619 852.388 246.313 840.542 247.968C826.74 249.893 837.629 238.5 838.354 235.459C842.021 220.088 860.528 183.959 869.361 157.776C874.067 143.826 879.154 150.618 893.929 150.338C925.605 149.737 926.124 147.715 931.753 150.166C934.77 151.478 939.566 147.717 945.307 148.666C949.286 149.324 949.16 148.313 953.126 148.448ZM663.064 113.042C668.259 114.191 736.162 110.44 736.56 114.259C736.798 116.578 736.618 125.833 736.598 126.846C736.437 135.161 734.938 135.013 736.394 143.378C736.881 146.176 734.402 145.496 722.722 176.158C718.266 187.854 715.605 186.62 704.515 217.012C703.648 219.389 695.87 236.757 695.102 238.471C690.805 248.068 690.934 235.009 690.939 234.547C691.019 226.571 693.053 226.655 691.282 218.992C689.995 213.422 694.557 213.229 691.379 205.344C690.542 203.263 695.18 203.133 691.233 177.286C691.226 177.142 692.993 169.92 692.268 166.606C690.576 158.872 692.733 158.915 692.381 151.099C691.998 142.662 674.61 144.712 661.059 144.707C654.111 145.305 651.326 146.598 651.269 139.464C651.137 122.769 648.424 109.801 663.064 113.042ZM424.805 20.9979C429.973 2.90839 431.72 -2.35194 449.701 3.33186C450.826 3.69131 451.229 13.7512 450.85 17.243C450.25 22.7894 450.267 42.1927 450.269 44.3651C450.275 50.9649 450.339 123.196 450.821 126.806C452.571 139.926 450.508 139.839 450.793 153.031C450.843 155.41 435.756 191.626 434.371 194.953C433.6 196.804 424.831 217.857 424.779 218.114C424.547 219.331 423.278 225.973 419.603 232.698C413.318 244.199 417.204 225.513 416.874 222.877C416.063 216.436 416.724 155.74 414.77 152.935C408.144 143.448 413.246 142.4 412.28 130.755C411.012 115.477 411.488 115.447 411.21 114.145C410.237 109.581 444.271 29.3995 443.39 28.1473C438.04 20.6287 427.455 53.3318 425.828 56.7772C407.369 95.8831 411.084 102.305 402.957 101.8C369.875 99.7427 370.006 102.165 336.994 101.002C325.256 100.589 320.014 103.084 323.128 97.618C332.067 81.9239 341.923 55.1376 355.521 22.1121C361.397 7.84152 358.078 0.979752 374.813 1.78303C381.407 2.09972 372.005 13.3721 369.841 23.0086C369.442 24.7784 356.313 57.7327 355.964 58.7528C352.179 69.8633 337.942 84.4549 366.101 83.5643C379.27 83.5449 379.224 83.8229 381.626 83.1951C393.699 80.0439 397.715 85.4185 399.956 79.2645C413.153 43.0149 423.188 26.6509 424.805 20.9979ZM576.616 39.8416C581.339 41.1137 574.116 47.3601 578.306 60.9305C578.991 63.1512 576.745 63.155 577.106 89.9617C577.458 116.062 577.32 118.545 577.182 121.026C578.06 157.055 574.353 157.24 578.275 174.471C578.534 175.607 577.567 175.566 576.932 188.986C576.841 190.926 572.673 194.144 564.598 216.976C557.504 237.039 554.931 236.185 553.508 235.24C550.259 233.081 555.72 158.604 550.557 148.136C550.374 147.764 545.314 114.193 552.912 100.375C553.347 99.5832 551.874 99.2247 556.78 89.7615C557.806 87.7845 575.726 39.623 576.616 39.8416ZM303.983 1.59456C318.224 -1.87494 310.103 29.6619 312.177 47.286C313.518 58.5598 310.069 95.9223 313.474 107.482C314.229 110.05 309.653 116.724 313.445 133.686C313.474 133.829 316.539 152.733 302.26 182.249C297.845 191.375 276.522 256.809 277.048 226.79C278.281 156.352 276.979 153.253 274.515 147.395C272.221 141.939 275.581 141.661 272.942 120.058C270.373 99.0321 284.463 82.8105 290.841 60.0125C293.999 48.7199 296.857 49.8881 299.828 38.4891C301.53 31.9598 301.555 32.134 304.193 26.0057C306.37 20.9461 299.953 19.5228 297.229 26.9227C287.566 53.1835 277.85 75.3554 272.081 89.0584C267.922 98.9382 268.818 102.858 258.342 100.934C257.647 100.812 237.123 104.931 240.959 97.7547C243.184 93.5923 263.304 58.519 244.82 60.076C232.594 61.1053 229.352 57.2069 224.37 68.6053C210.208 101.007 209.989 101.811 206.988 101.85C197.712 101.969 177.216 104.499 185.336 95.5369C186.158 94.6211 209.248 39.6031 213.596 22.9735C213.745 22.4035 214.175 22.7191 216.502 16.1903C221.636 1.77977 223.12 1.74181 224.44 1.70979C229.437 1.58858 229.202 2.22696 233.026 3.90999C234.674 4.63453 234.706 2.23771 255.488 2.61897C262.794 2.75294 262.852 3.93991 269.067 1.67268C270.51 1.14814 291.569 4.61852 303.983 1.59456ZM467.955 231.787C466.32 232.681 466.38 232.547 466.318 232.681C465.571 234.315 470.068 233.404 467.955 231.787ZM334.07 229.797C352.266 230.039 330.613 232.772 330.199 232.823C310.189 229.48 333.651 229.792 334.07 229.797ZM747.414 230.487C742.554 228.191 748.714 227.405 749.182 228.799C749.666 230.235 748.816 229.815 747.414 230.487ZM928.928 219.325C925.093 218.11 929.509 214.848 930.089 216.973C930.499 218.48 929.975 218.281 928.928 219.325ZM908.452 217.698C903.092 215.367 908.749 214.481 909.44 215.154C910.713 216.397 909.705 216.452 908.452 217.698ZM922.053 217.574C916.06 216.402 922.861 213.165 923.59 214.399C924.662 216.216 922.305 217.442 922.053 217.574ZM222.439 167.213C220.37 167.51 205.882 162.606 201.35 171.552C199.136 175.925 201.476 176.786 197.614 182.357C193.455 188.356 202.143 191.908 202.979 192.25C204.214 192.468 210.25 193.535 218.612 191.821C222.618 190.994 239.331 164.792 222.439 167.213ZM638.128 166.288C636.058 166.585 621.57 161.681 617.039 170.628C614.824 175.001 617.165 175.862 613.303 181.432C609.143 187.431 617.832 190.983 618.668 191.325C619.901 191.542 625.937 192.611 634.301 190.896C638.306 190.072 655.021 163.867 638.128 166.288ZM290.53 182C286.476 179.865 285.195 183.658 285.044 184.106C287.888 194.2 292.827 183.211 290.53 182ZM364.147 166.649C361.213 164.89 348.935 166.182 347.618 166.32C334.632 167.689 332.931 187.83 343.782 187.662C358.206 187.438 362.744 191.281 366.437 177.415C366.519 176.516 369.052 169.59 364.147 166.649ZM761.001 164.415C759.504 164.947 745.792 169.828 751.73 181.949C752.579 183.681 754.781 188.168 775.53 185.74C776.643 185.61 777.643 185.492 782.073 173.348C786.278 161.823 771.172 166.832 761.001 164.415ZM515.463 179.765C492.742 177.748 542.661 172.768 533.619 180.799C529.629 184.341 528.838 177.398 515.463 179.765ZM215.707 176.315C224.433 177.293 220.022 180.955 219.541 181.057C207.341 183.596 210.353 177.06 211.058 176.775C211.404 176.636 211.404 176.741 215.707 176.315ZM626.983 179.415C622.378 174.984 631.395 174.411 633.944 175.111C638.594 176.388 636.078 184.204 626.983 179.415ZM943.53 177.303C943.663 176.988 945.142 173.505 947.316 175.324C949.336 177.014 946.377 183.838 943.53 177.303ZM476.592 176.042C478.421 175.306 518.717 176.747 489.322 179.843C485.35 179.409 466.453 180.122 476.592 176.042ZM712.251 177.314C711.74 175.484 712.19 174.6 710.404 175.089C708.735 175.546 709.982 183.183 712.251 177.314ZM890.973 178.017C886.497 177.708 889.484 173.025 892.226 175.021C894.606 176.754 891.222 177.932 890.973 178.017ZM917.214 178.006C905.701 175.67 918.856 172.021 922.876 174.607C927.656 177.684 917.743 177.989 917.214 178.006ZM56.2674 171.341C56.46 170.884 61.1209 159.853 61.1327 167.639C61.1374 170.777 60.2351 170.405 59.6141 173.433C54.4607 184.656 56.1449 171.634 56.2674 171.341ZM902.89 174.628C905.133 172.488 909.772 175.784 904.598 177.929C904.323 177.817 900.97 176.46 902.89 174.628ZM122.582 177.468C125.743 177.186 126.799 167.755 120.475 171.299C120.185 171.736 116.001 178.05 122.582 177.468ZM587.203 112.944C588.073 112.642 598.23 109.107 598.431 115.178C598.464 116.189 598.527 118.103 598.208 127.819C598.531 143.817 598.767 144.398 595.684 146.788C584.287 155.624 590.604 166.506 585.446 164.331C582.352 163.024 586.875 148.754 585.085 139.535C585.024 139.206 582.601 114.546 587.203 112.944ZM201.159 112.53C210.102 112.391 207.6 116.883 209.214 144.344C209.42 147.888 193.256 145.261 187.638 146.566C179.945 148.354 181.17 144.397 181.315 136.553C177.658 112.696 181.969 112.306 183.773 112.908C192.283 115.748 192.329 112.668 201.159 112.53ZM222.606 84.2186C222.791 83.7333 226.212 82.0434 225.556 89.9901C223.861 110.498 227.965 143.638 223.36 146.01C213.209 151.237 216.858 128.052 216.395 120.057C215.388 100.48 218.06 100.893 220.699 93.9032C222.672 88.6738 222.148 85.4248 222.606 84.2186ZM482.454 113.028C489.952 111.027 511.422 115.666 519.309 112.972C522.215 111.979 531.294 113.396 539.723 113.532C544.136 113.605 540.631 130.557 542.022 141.372C542.706 146.695 540.104 145.46 534.901 144.831C529.781 145.04 489.798 146.67 470.886 145.045C469.494 144.926 458.363 150.199 458.265 142.374C458.218 138.493 458.269 134.611 458.265 130.73C458.256 124.799 458.758 124.846 457.217 119.106C454.706 109.76 470.927 116.104 482.454 113.028ZM322.432 113.959C328.924 113.924 328.662 111.645 335.006 112.585C352.987 115.249 353.025 112.526 354.545 112.894C370.133 116.675 371.597 111.327 377.796 113.114C387.858 116.017 388.082 111.369 394.319 112.907C402.962 115.038 403.175 113.888 403.682 114.454C405.838 116.868 404.798 143.872 404.638 144.18C402.579 147.877 354.914 145.754 349.62 144.838C347.579 145.343 344.395 146.132 323.381 146.487C318.698 146.562 318.062 113.985 322.432 113.959ZM623.411 7.60237C629.632 -5.70981 643.984 1.96854 644.01 4.56917C645.169 127.822 643.533 127.779 643.707 138.491C643.907 150.825 637.399 145.07 625.156 144.708C611.546 144.304 604.958 150.132 604.36 136.554C604.36 120.104 603.327 112.662 606.8 104.568C629.126 52.5253 626.154 51.2643 629.121 47.3475C634.073 40.8118 637.066 28.4502 633.855 28.1219C629.278 27.6528 629.932 34.3691 629.803 34.5916C613.661 61.6037 614.367 72.4191 601.677 98.6121C599.017 104.101 592.67 100.607 592.184 100.56C580.214 99.5057 590.788 91.2892 594.713 79.1883C599.663 63.9261 608.762 44.2885 610.137 41.3201C615.199 30.393 619.62 15.7148 623.411 7.60237ZM240.139 115.306C241.145 113.602 263.92 112.648 265.31 113.032C267.651 113.68 267.257 114.605 266.451 143.372C266.37 146.256 265.115 146.086 244.817 146.34C236.686 146.441 239.192 133.304 239.183 121.999C239.304 118.538 238.316 118.404 240.139 115.306ZM691.464 10.5682C696.991 -2.21288 700.544 1.51465 714.428 1.10628C725.985 0.766723 775.131 1.15143 780.414 1.19319C785.029 1.22919 781.345 6.55124 782.464 34.6698C782.875 44.987 780.685 44.9167 782.279 55.0623C783.17 60.7348 782.432 60.7597 782.49 126.849C782.503 141.417 782.104 142.239 781.524 143.434C780.588 145.355 764.83 144.685 757.119 144.709C755.924 144.709 742.636 144.703 742.237 143.48C742.025 142.81 742.743 113.898 742.807 111.323C742.862 109.121 742.941 106.037 751.771 85.2801C754.219 79.5239 761.385 64.7215 762.246 62.9412C763.038 61.3045 760.823 60.5922 769.755 41.4783C772.634 35.3142 774.797 18.0797 767.828 30.8201C760.821 43.6292 762.956 44.5645 755.524 57.2166C750.206 66.2708 743.938 100.4 733.831 100.478C686.332 100.842 685.537 100.619 681.507 99.4871C679.882 99.0312 652.643 103.425 654.891 97.6287C664.538 72.7799 666.601 73.7628 676.906 45.4735C679.785 37.5702 690.261 13.3477 691.464 10.5682ZM673.652 131.763C671.832 132.033 670.725 131.924 671.841 133.576C672.856 135.078 676.807 134.61 673.652 131.763ZM767.835 101.647C768.021 101.171 771.813 91.5076 764.991 95.9657C759.216 99.7419 763.45 107.114 767.835 101.647ZM530.061 1.37288C536.074 1.05002 536.169 4.12477 541.734 1.72639C542.09 1.57353 542.095 1.69957 546.569 1.36116C560.106 3.04661 557.299 8.31809 568.76 15.4949C585.751 26.1335 572.58 32.6915 567.962 44.3934C566.569 47.9202 565.876 47.6055 549.693 88.1278C548.476 91.1756 547.655 99.5377 540.801 101.034C537.537 101.746 537.503 100.48 499.035 101.03C496.783 101.062 496.814 100.579 470.889 100.633C468.947 100.637 467.013 100.876 465.074 100.949C456.077 101.286 469.971 83.3768 471.978 72.5399C472.434 70.0757 473.65 70.5537 483.735 43.494C484.065 42.6148 496.941 17.3162 500.36 3.71858C501.229 0.269409 513.37 2.27026 530.061 1.37288ZM762.004 90.2254C760.147 90.3273 760.899 91.0919 760.935 92.9198C763.671 96.0698 764.964 90.065 762.004 90.2254ZM556.123 26.076C542.046 11.792 540.446 13.0586 520.376 13.5418C509.881 13.7941 509.333 15.0393 505.706 24.9295C493.74 57.573 492.195 56.9953 491.745 59.9793C490.459 68.5031 488.136 67.9451 486.071 75.6619L485.873 76.4354C483.424 79.6256 483.363 79.8365 483.672 79.9559C484.075 80.1094 486.436 79.1282 486.676 79.0282C493.016 82.9652 492.691 84.5764 497.153 83.4852C503.427 81.9514 503.529 84.7551 509.74 83.3573C526.129 79.6678 528.375 84.4594 532.063 83.4198C534.757 82.6611 536.597 82.1394 549.736 53.2225C557.271 36.6411 561.261 31.2901 556.123 26.076ZM716.344 12.5389C701.921 11.0081 704.903 17.9048 692.703 44.2801C687.211 59.7212 685.336 58.879 680.529 74.4715C677.27 85.0459 701.333 81.5176 724.128 82.2879C733.425 82.6018 733.586 70.2844 741.645 55.0819C742.008 54.399 741.985 54.3946 756.733 20.8953C763.136 6.35175 749.484 16.0569 716.344 12.5389ZM377.858 21.1375C380.967 9.05147 382.483 34.8289 381.883 54.0799C382.254 70.4482 382.924 76.2096 377.741 76.3846C358.596 77.0298 355.155 76.7532 356.628 72.6199C360.832 60.8208 368.212 50.6584 370.079 40.5203C370.35 39.0504 375.43 30.583 377.858 21.1375ZM740.699 23.3348C754.15 20.4824 746.364 30.9044 744.591 34.7157C726.88 72.7794 728.313 75.2659 722.184 76.0897C708.962 74.6786 717.538 64.5485 714.809 46.244C714.57 44.6369 715.024 44.8201 715.245 25.9266C715.316 19.8991 728.483 25.9249 740.699 23.3348ZM512.938 28.9158C514.039 19.5981 517.756 27.5408 517.765 27.8592C518.219 52.048 518.99 52.0163 518.759 54.1043C517.059 69.5075 522.555 76.2661 509.703 76.0828C494.644 75.7259 494.329 76.2109 493.629 75.1297C492.785 73.8239 512.7 30.8992 512.938 28.9158ZM523.726 28.8582C523.392 25.502 538.069 19.0508 537.233 30.8231C536.128 46.3677 541.814 73.5617 529.102 76.0721C519.676 73.4844 527.613 66.8967 524.276 52.1326C523.867 50.3161 525.862 50.2433 523.726 28.8582ZM705.151 30.9676C707.321 24.6575 709.385 27.4976 709.372 27.9149C708.923 41.1333 708.516 40.979 708.036 54.0809C707.925 57.1246 711.77 74.5156 706.682 74.6717C698.111 74.9317 698.141 74.0743 692.1 76.0535C686.909 75.0221 689.229 72.452 696.04 54.0994C700.379 42.4052 701.073 42.8295 705.151 30.9676ZM543.144 29.7147C543.006 29.3598 540.458 22.874 546.366 26.2977C557.412 32.7001 549.853 35.8718 546.834 44.4979C546.687 44.9166 542.65 56.445 542.171 47.2664C541.313 30.8313 543.247 31.1161 543.144 29.7147ZM265.236 16.9559C248.317 16.6367 243.6 15.952 242.053 24.9989C241.599 27.6482 232.22 38.2631 241.162 43.0067C243.536 44.2661 246.331 43.9906 246.668 43.908C252.465 42.4743 252.347 42.516 258.385 42.744C267.141 41.3616 273.638 17.1156 265.236 16.9559ZM251.275 28.8573C251.469 28.1987 252.787 23.6982 259.523 26.5701C267.279 29.8768 253.439 36.9002 251.275 28.8573ZM775.907 22.0448C775.776 21.7396 774.558 18.8842 772.457 19.7801C769.374 21.0969 773.707 28.4055 775.907 22.0448Z" fill="#56EB6F"/>
</svg>
